<svg xmlns="http://www.w3.org/2000/svg" viewBox="0 0 125.52 104.55"><defs><style>.cls-1{fill:#eb102c;}</style></defs><title>Asset 6</title><g id="Layer_2" data-name="Layer 2"><g id="OBJECTS"><path class="cls-1" d="M125.28,8.78c-7.65,2.39-18,4.89-25.73,1.79C95.11,8.8,91.78,5.2,87.64,2.9S78.32-.83,73.56.54c-1.38.4-5.74,2-6.09,3.85,0,0-4.55,23-6.91,34.92C56,32.66,48.23,29.39,38.31,29.39,16.9,29.39,0,46.41,0,69.76c0,19.73,13.8,31.08,29.92,31.08a30.75,30.75,0,0,0,20.65-7.45h0A9.41,9.41,0,0,0,69,97l.06-.35h0L83.16,27.69c33.85,3.87,42.36-19,42.36-19ZM40.63,46c6.23,0,10.82,2.28,13.42,6.24h-28A19.27,19.27,0,0,1,40.63,46ZM20.31,67.3a30,30,0,0,1,.42-3.76H56.41a29.6,29.6,0,0,1-.53,3.76Zm34.5,3.76A22,22,0,0,1,53,74.81H21.18a17.42,17.42,0,0,1-.8-3.75ZM21.7,59.79A22.51,22.51,0,0,1,23.39,56H55.75a17.66,17.66,0,0,1,.68,3.76ZM36.11,84.2c-5.89,0-10.31-2-13-5.63H50.05A19.29,19.29,0,0,1,36.11,84.2Z"/></g></g></svg>